<svg xmlns="http://www.w3.org/2000/svg" style="display: none;">
  <!-- Checkbox: empty circle -->
  <symbol id="checkbox-empty" viewBox="0 0 24 24" fill="none" stroke="currentColor" stroke-width="2" stroke-linecap="round" stroke-linejoin="round">
    <circle cx="12" cy="12" r="10"/>
  </symbol>

  <!-- Checkbox: checked circle with checkmark -->
  <symbol id="checkbox-checked" viewBox="0 0 24 24" fill="none" stroke="currentColor" stroke-width="2" stroke-linecap="round" stroke-linejoin="round">
    <path d="M21.801 10A10 10 0 1 1 17 3.335"/>
    <path d="m9 11 3 3L22 4"/>
  </symbol>

  <!-- Bell: notification bell -->
  <symbol id="bell" viewBox="0 0 24 24" fill="none" stroke="currentColor" stroke-width="2" stroke-linecap="round" stroke-linejoin="round">
    <path d="M10.268 21a2 2 0 0 0 3.464 0"/>
    <path d="M3.262 15.326A1 1 0 0 0 4 17h16a1 1 0 0 0 .74-1.673C19.41 13.956 18 12.499 18 8A6 6 0 0 0 6 8c0 4.499-1.411 5.956-2.738 7.326"/>
  </symbol>

  <!-- Bell with dot: notification bell with indicator -->
  <symbol id="bell-dot" viewBox="0 0 24 24" fill="none" stroke="currentColor" stroke-width="2" stroke-linecap="round" stroke-linejoin="round">
    <path d="M10.268 21a2 2 0 0 0 3.464 0"/>
    <path d="M11.68 2.009A6 6 0 0 0 6 8c0 4.499-1.411 5.956-2.738 7.326A1 1 0 0 0 4 17h16a1 1 0 0 0 .74-1.673c-.824-.85-1.678-1.731-2.21-3.348"/>
    <circle cx="18" cy="5" r="3"/>
  </symbol>
</svg>
